<?xml version="1.0" encoding="UTF-8"?>
<!DOCTYPE svg PUBLIC "-//W3C//DTD SVG 1.1//EN" "http://www.w3.org/Graphics/SVG/1.1/DTD/svg11.dtd">
<svg xmlns="http://www.w3.org/2000/svg" version="1.1" width="746px" height="748px" style="shape-rendering:geometricPrecision; text-rendering:geometricPrecision; image-rendering:optimizeQuality; fill-rule:evenodd; clip-rule:evenodd" xmlns:xlink="http://www.w3.org/1999/xlink">
<g><path style="opacity:1" fill="#d8d8d8" d="M -0.5,-0.5 C 248.167,-0.5 496.833,-0.5 745.5,-0.5C 745.5,0.166667 745.5,0.833333 745.5,1.5C 496.833,1.5 248.167,1.5 -0.5,1.5C -0.5,0.833333 -0.5,0.166667 -0.5,-0.5 Z"/></g>
<g><path style="opacity:1" fill="#fdfcfc" d="M -0.5,1.5 C 248.167,1.5 496.833,1.5 745.5,1.5C 745.5,250.167 745.5,498.833 745.5,747.5C 496.833,747.5 248.167,747.5 -0.5,747.5C -0.5,498.833 -0.5,250.167 -0.5,1.5 Z"/></g>
<g><path style="opacity:1" fill="#bd292b" d="M 355.5,185.5 C 407.117,181.065 447.284,200.065 476,242.5C 498.227,281.941 499.227,321.941 479,362.5C 452.07,406.683 412.57,427.517 360.5,425C 310.417,416.917 276.584,389.084 259,341.5C 244.21,281.62 262.377,234.787 313.5,201C 326.826,193.681 340.826,188.514 355.5,185.5 Z"/></g>
<g><path style="opacity:1" fill="#fcfbfb" d="M 358.5,189.5 C 407.696,186.359 445.863,205.026 473,245.5C 497.308,290.925 494.641,334.592 465,376.5C 432.181,414.772 391.014,428.272 341.5,417C 292.997,400.157 265.164,366.324 258,315.5C 256.42,257.14 282.587,216.973 336.5,195C 343.823,192.656 351.157,190.823 358.5,189.5 Z"/></g>
<g><path style="opacity:1" fill="#bc2528" d="M 413.5,240.5 C 429.968,239.148 441.135,246.148 447,261.5C 448.218,269.295 446.885,276.629 443,283.5C 439.692,288.308 436.192,292.975 432.5,297.5C 433.865,298.941 435.365,300.274 437,301.5C 441.449,323.74 445.116,346.073 448,368.5C 446.612,369.554 445.112,369.72 443.5,369C 432.311,363.573 420.978,358.407 409.5,353.5C 397.735,359.241 385.735,364.574 373.5,369.5C 361.02,364.425 348.686,359.091 336.5,353.5C 326.07,358.089 315.737,362.922 305.5,368C 303.553,368.991 301.553,369.325 299.5,369C 298.941,368.275 298.608,367.442 298.5,366.5C 302.174,344.805 306.007,323.139 310,301.5C 320.604,295.688 331.437,290.355 342.5,285.5C 352.902,289.786 363.069,294.453 373,299.5C 381.167,295.667 389.333,291.833 397.5,288C 398.022,287.439 398.355,286.772 398.5,286C 387.079,265.355 392.079,250.188 413.5,240.5 Z"/></g>
<g><path style="opacity:1" fill="#e7b8ba" d="M 372.5,342.5 C 371.509,349.313 371.175,356.313 371.5,363.5C 370.209,363.737 369.209,363.404 368.5,362.5C 370.144,355.881 371.144,348.881 371.5,341.5C 372.107,341.624 372.44,341.957 372.5,342.5 Z"/></g>
<g><path style="opacity:1" fill="#e8b8b9" d="M 375.5,344.5 C 375.853,350.735 376.853,356.735 378.5,362.5C 377.791,363.404 376.791,363.737 375.5,363.5C 375.5,357.167 375.5,350.833 375.5,344.5 Z"/></g>
<g><path style="opacity:1" fill="#fcf8f8" d="M 374.5,327.5 C 374.369,328.376 374.702,329.043 375.5,329.5C 376.498,320.859 376.831,312.192 376.5,303.5C 384.869,298.984 393.536,294.984 402.5,291.5C 403.003,301.521 403.836,311.521 405,321.5C 406.527,319.779 407.527,317.779 408,315.5C 408.3,309.814 408.3,304.147 408,298.5C 412.066,302.566 416.066,306.566 420,310.5C 422.434,308.066 424.934,305.566 427.5,303C 428.899,302.405 430.232,302.572 431.5,303.5C 436.132,322.957 439.799,342.623 442.5,362.5C 432.116,358.807 422.116,354.307 412.5,349C 411.162,335.433 409.162,335.6 406.5,349.5C 397.171,353.831 387.838,358.164 378.5,362.5C 376.853,356.735 375.853,350.735 375.5,344.5C 374.5,343.833 373.5,343.167 372.5,342.5C 372.44,341.957 372.107,341.624 371.5,341.5C 371.144,348.881 370.144,355.881 368.5,362.5C 359.22,358.263 349.886,353.929 340.5,349.5C 340.826,340.864 340.826,332.198 340.5,323.5C 339.252,324.04 338.085,324.707 337,325.5C 335.96,333.131 335.294,340.798 335,348.5C 325.194,354.042 315.027,358.709 304.5,362.5C 307.306,342.688 310.806,323.022 315,303.5C 322.714,299.63 330.547,295.964 338.5,292.5C 339.502,298.486 339.502,304.486 338.5,310.5C 340.167,310.5 341.833,310.5 343.5,310.5C 343.861,304.139 344.528,297.806 345.5,291.5C 353.833,295.5 362.167,299.5 370.5,303.5C 371.331,310.476 371.831,317.476 372,324.5C 373.045,325.373 373.878,326.373 374.5,327.5 Z"/></g>
<g><path style="opacity:1" fill="#c13534" d="M 396.5,339.5 C 400.161,339.35 401.161,340.85 399.5,344C 395.76,346.045 391.927,346.545 388,345.5C 387.508,344.451 387.674,343.451 388.5,342.5C 391.447,341.92 394.114,340.92 396.5,339.5 Z"/></g>
<g><path style="opacity:1" fill="#b72428" d="M 374.5,334.5 C 379.482,335.335 382.649,338.002 384,342.5C 382.951,343.517 381.784,343.684 380.5,343C 378.5,341.667 376.5,340.333 374.5,339C 373.272,337.51 373.272,336.01 374.5,334.5 Z"/></g>
<g><path style="opacity:1" fill="#c03334" d="M 316.5,336.5 C 320.161,336.35 321.161,337.85 319.5,341C 315.707,341.487 314.707,339.987 316.5,336.5 Z"/></g>
<g><path style="opacity:1" fill="#be2a2b" d="M 407.5,327.5 C 408.5,327.5 409.5,327.5 410.5,327.5C 410.542,333.785 407.542,337.452 401.5,338.5C 402.623,334.371 404.623,330.705 407.5,327.5 Z"/></g>
<g><path style="opacity:1" fill="#be2d2d" d="M 361.5,323.5 C 364.973,324.766 368.14,326.766 371,329.5C 371.49,330.793 371.657,332.127 371.5,333.5C 367.497,333.029 364.331,331.029 362,327.5C 361.51,326.207 361.343,324.873 361.5,323.5 Z"/></g>
<g><path style="opacity:1" fill="#bc2528" d="M 325.5,323.5 C 326.833,323.5 328.167,323.5 329.5,323.5C 329.657,324.873 329.49,326.207 329,327.5C 327.287,328.878 325.953,330.545 325,332.5C 323.644,333.38 322.144,333.714 320.5,333.5C 321.229,329.751 322.896,326.417 325.5,323.5 Z"/></g>
<g><path style="opacity:1" fill="#c03332" d="M 347.5,315.5 C 351.542,315.523 355.208,316.689 358.5,319C 360,321.167 359.5,322.667 357,323.5C 354.106,322.303 351.273,320.97 348.5,319.5C 347.571,318.311 347.238,316.978 347.5,315.5 Z"/></g>
<g><path style="opacity:1" fill="#bd292a" d="M 337.5,314.5 C 341.241,313.599 343.241,314.932 343.5,318.5C 339.756,319.721 336.09,320.887 332.5,322C 331.483,320.951 331.316,319.784 332,318.5C 334.015,317.303 335.849,315.97 337.5,314.5 Z"/></g>
<g><path style="opacity:1" fill="#bc2528" d="M 414.5,312.5 C 417.244,313.072 418.077,314.738 417,317.5C 416.138,319.087 415.471,320.754 415,322.5C 413.89,324.037 412.39,324.703 410.5,324.5C 410.447,319.993 411.78,315.993 414.5,312.5 Z"/></g>
<g><path style="opacity:1" fill="#ebbbbe" d="M 376.5,303.5 C 376.831,312.192 376.498,320.859 375.5,329.5C 374.702,329.043 374.369,328.376 374.5,327.5C 375.167,319.5 375.833,311.5 376.5,303.5 Z"/></g>
<g><path style="opacity:1" fill="#fcf7f7" d="M 413.5,245.5 C 427.189,243.753 436.689,249.086 442,261.5C 443.456,269.045 442.123,276.045 438,282.5C 432.686,290.158 426.686,297.158 420,303.5C 413.662,297.826 407.996,291.492 403,284.5C 392.45,267.625 395.95,254.625 413.5,245.5 Z"/></g>
<g><path style="opacity:1" fill="#bd2729" d="M 414.5,254.5 C 423.847,252.423 430.347,255.756 434,264.5C 434.447,278.052 427.947,283.885 414.5,282C 402.54,272.8 402.54,263.633 414.5,254.5 Z"/></g>
<g><path style="opacity:1" fill="#fcf5f6" d="M 416.5,258.5 C 426.536,258.032 430.702,262.699 429,272.5C 422.461,279.416 416.461,279.083 411,271.5C 409.571,265.7 411.404,261.367 416.5,258.5 Z"/></g>
<g><path style="opacity:1" fill="#b8131c" d="M 140.5,466.5 C 124.5,466.5 108.5,466.5 92.5,466.5C 92.5,471.833 92.5,477.167 92.5,482.5C 107.167,482.5 121.833,482.5 136.5,482.5C 136.5,487.167 136.5,491.833 136.5,496.5C 122.167,496.5 107.833,496.5 93.5,496.5C 92.5128,501.305 92.1795,506.305 92.5,511.5C 108.5,511.5 124.5,511.5 140.5,511.5C 140.5,516.167 140.5,520.833 140.5,525.5C 119.833,525.5 99.1667,525.5 78.5,525.5C 78.5,501.167 78.5,476.833 78.5,452.5C 99.1667,452.5 119.833,452.5 140.5,452.5C 140.5,457.167 140.5,461.833 140.5,466.5 Z"/></g>
<g><path style="opacity:1" fill="#ba1d21" d="M 150.5,525.5 C 150.333,513.829 150.5,502.162 151,490.5C 154.055,488.74 155.888,486.073 156.5,482.5C 159.265,480.399 162.265,478.733 165.5,477.5C 166.107,477.624 166.44,477.957 166.5,478.5C 164.701,481.505 164.034,484.838 164.5,488.5C 176.5,488.5 188.5,488.5 200.5,488.5C 200.5,481.5 200.5,474.5 200.5,467.5C 192.826,467.334 185.159,467.5 177.5,468C 175.63,470.04 173.63,471.873 171.5,473.5C 170.903,473.265 170.57,472.765 170.5,472C 173.913,469.73 174.746,466.897 173,463.5C 169.687,462.68 166.521,461.68 163.5,460.5C 165.628,457.87 167.961,455.37 170.5,453C 185.496,452.5 200.496,452.333 215.5,452.5C 215.5,476.833 215.5,501.167 215.5,525.5C 210.5,525.5 205.5,525.5 200.5,525.5C 200.5,518.167 200.5,510.833 200.5,503.5C 188.5,503.5 176.5,503.5 164.5,503.5C 164.5,510.833 164.5,518.167 164.5,525.5C 159.833,525.5 155.167,525.5 150.5,525.5 Z"/></g>
<g><path style="opacity:1" fill="#b9171e" d="M 291.5,459.5 C 291.5,464.167 291.5,468.833 291.5,473.5C 287.167,473.5 282.833,473.5 278.5,473.5C 278.795,471.265 278.461,469.265 277.5,467.5C 265.167,467.5 252.833,467.5 240.5,467.5C 239.676,471.312 239.176,475.312 239,479.5C 237.113,481.026 236.113,483.026 236,485.5C 233.688,486.814 231.688,488.481 230,490.5C 228.697,490.022 227.531,489.355 226.5,488.5C 226.334,478.494 226.5,468.494 227,458.5C 228.833,456.667 230.667,454.833 232.5,453C 250.167,452.333 267.833,452.333 285.5,453C 287.706,455.037 289.706,457.203 291.5,459.5 Z"/></g>
<g><path style="opacity:1" fill="#b9181e" d="M 365.5,452.5 C 365.5,460.833 365.5,469.167 365.5,477.5C 362.821,477.673 360.487,478.673 358.5,480.5C 353.044,477.999 350.044,479.666 349.5,485.5C 346.998,487.18 344.498,488.846 342,490.5C 338.801,487.871 335.801,488.204 333,491.5C 333.305,495.525 331.139,497.525 326.5,497.5C 318.051,492.101 309.718,486.434 301.5,480.5C 300.502,471.19 300.168,461.857 300.5,452.5C 305.5,452.5 310.5,452.5 315.5,452.5C 315.169,459.863 315.503,467.197 316.5,474.5C 321.996,478.416 327.663,482.082 333.5,485.5C 339.801,481.697 345.968,477.697 352,473.5C 352.5,466.508 352.666,459.508 352.5,452.5C 356.833,452.5 361.167,452.5 365.5,452.5 Z"/></g>
<g><path style="opacity:1" fill="#b9191f" d="M 434.5,503.5 C 419.5,503.5 404.5,503.5 389.5,503.5C 389.5,510.833 389.5,518.167 389.5,525.5C 384.833,525.5 380.167,525.5 375.5,525.5C 375.5,501.167 375.5,476.833 375.5,452.5C 395.169,452.333 414.836,452.5 434.5,453C 436.667,455.167 438.833,457.333 441,459.5C 441.667,471.833 441.667,484.167 441,496.5C 438.628,498.703 436.461,501.037 434.5,503.5 Z"/></g>
<g><path style="opacity:1" fill="#b8161d" d="M 563.5,504.5 C 556.018,503.508 548.352,503.175 540.5,503.5C 540.5,510.833 540.5,518.167 540.5,525.5C 535.833,525.5 531.167,525.5 526.5,525.5C 526.5,501.167 526.5,476.833 526.5,452.5C 546.169,452.333 565.836,452.5 585.5,453C 587.667,455.167 589.833,457.333 592,459.5C 592.667,471.833 592.667,484.167 592,496.5C 589.65,498.683 587.483,501.016 585.5,503.5C 587.483,505.984 589.65,508.317 592,510.5C 592.499,515.489 592.666,520.489 592.5,525.5C 587.5,525.5 582.5,525.5 577.5,525.5C 577.664,522.813 577.497,520.146 577,517.5C 572.631,512.963 568.131,508.63 563.5,504.5 Z"/></g>
<g><path style="opacity:1" fill="#ba1d21" d="M 602.5,452.5 C 607.5,452.5 612.5,452.5 617.5,452.5C 617.5,462.167 617.5,471.833 617.5,481.5C 625.174,481.666 632.841,481.5 640.5,481C 645,476.5 649.5,472 654,467.5C 654.499,462.511 654.666,457.511 654.5,452.5C 659.167,452.5 663.833,452.5 668.5,452.5C 668.666,460.174 668.5,467.841 668,475.5C 663.5,480 659,484.5 654.5,489C 659,493.5 663.5,498 668,502.5C 668.5,510.159 668.666,517.826 668.5,525.5C 663.833,525.5 659.167,525.5 654.5,525.5C 654.666,520.489 654.499,515.489 654,510.5C 649.5,506 645,501.5 640.5,497C 632.841,496.5 625.174,496.334 617.5,496.5C 617.5,506.167 617.5,515.833 617.5,525.5C 612.5,525.5 607.5,525.5 602.5,525.5C 602.5,501.167 602.5,476.833 602.5,452.5 Z"/></g>
<g><path style="opacity:1" fill="#b92127" d="M 163.5,460.5 C 166.521,461.68 169.687,462.68 173,463.5C 174.746,466.897 173.913,469.73 170.5,472C 170.57,472.765 170.903,473.265 171.5,473.5C 170.167,475.5 168.5,477.167 166.5,478.5C 166.44,477.957 166.107,477.624 165.5,477.5C 162.265,478.733 159.265,480.399 156.5,482.5C 155.888,486.073 154.055,488.74 151,490.5C 150.5,502.162 150.333,513.829 150.5,525.5C 149.338,508.338 149.171,491.005 150,473.5C 154.369,468.963 158.869,464.63 163.5,460.5 Z"/></g>
<g><path style="opacity:1" fill="#fdfcfc" d="M 166.5,478.5 C 168.5,477.167 170.167,475.5 171.5,473.5C 173.63,471.873 175.63,470.04 177.5,468C 185.159,467.5 192.826,467.334 200.5,467.5C 200.5,474.5 200.5,481.5 200.5,488.5C 188.5,488.5 176.5,488.5 164.5,488.5C 164.034,484.838 164.701,481.505 166.5,478.5 Z"/></g>
<g><path style="opacity:1" fill="#fdfcfc" d="M 390.5,467.5 C 402.5,467.5 414.5,467.5 426.5,467.5C 426.5,474.5 426.5,481.5 426.5,488.5C 414.5,488.5 402.5,488.5 390.5,488.5C 390.5,481.5 390.5,474.5 390.5,467.5 Z"/></g>
<g><path style="opacity:1" fill="#b8151d" d="M 501.5,525.5 C 501.5,518.167 501.5,510.833 501.5,503.5C 488.989,503.171 476.655,503.505 464.5,504.5C 464.5,511.5 464.5,518.5 464.5,525.5C 459.833,525.5 455.167,525.5 450.5,525.5C 450.194,507.786 450.527,490.12 451.5,472.5C 457.631,465.869 463.964,459.369 470.5,453C 485.496,452.5 500.496,452.333 515.5,452.5C 515.5,476.833 515.5,501.167 515.5,525.5C 510.833,525.5 506.167,525.5 501.5,525.5 Z"/></g>
<g><path style="opacity:1" fill="#faf8f8" d="M 478.5,467.5 C 485.833,467.5 493.167,467.5 500.5,467.5C 500.5,474.5 500.5,481.5 500.5,488.5C 488.5,488.5 476.5,488.5 464.5,488.5C 464.336,485.813 464.503,483.146 465,480.5C 469.437,476.045 473.937,471.711 478.5,467.5 Z"/></g>
<g><path style="opacity:1" fill="#cf6065" d="M 291.5,459.5 C 292.487,464.305 292.821,469.305 292.5,474.5C 287.5,474.5 282.5,474.5 277.5,474.5C 277.5,472.167 277.5,469.833 277.5,467.5C 278.461,469.265 278.795,471.265 278.5,473.5C 282.833,473.5 287.167,473.5 291.5,473.5C 291.5,468.833 291.5,464.167 291.5,459.5 Z"/></g>
<g><path style="opacity:1" fill="#bb262c" d="M 365.5,452.5 C 366.822,461.675 366.822,471.008 365.5,480.5C 359.092,485.581 352.425,490.248 345.5,494.5C 344.287,492.324 342.62,491.991 340.5,493.5C 336.06,490.777 335.06,491.61 337.5,496C 333.793,496.936 330.626,498.769 328,501.5C 327.5,509.493 327.334,517.493 327.5,525.5C 326.506,516.348 326.173,507.015 326.5,497.5C 331.139,497.525 333.305,495.525 333,491.5C 335.801,488.204 338.801,487.871 342,490.5C 344.498,488.846 346.998,487.18 349.5,485.5C 350.044,479.666 353.044,477.999 358.5,480.5C 360.487,478.673 362.821,477.673 365.5,477.5C 365.5,469.167 365.5,460.833 365.5,452.5 Z"/></g>
<g><path style="opacity:1" fill="#d47479" d="M 140.5,466.5 C 125.009,467.496 109.342,467.83 93.5,467.5C 93.5,472.167 93.5,476.833 93.5,481.5C 108.167,481.5 122.833,481.5 137.5,481.5C 137.821,486.695 137.487,491.695 136.5,496.5C 136.5,491.833 136.5,487.167 136.5,482.5C 121.833,482.5 107.167,482.5 92.5,482.5C 92.5,477.167 92.5,471.833 92.5,466.5C 108.5,466.5 124.5,466.5 140.5,466.5 Z"/></g>
<g><path style="opacity:1" fill="#b81d25" d="M 240.5,467.5 C 240.5,472.167 240.5,476.833 240.5,481.5C 250.833,481.5 261.167,481.5 271.5,481.5C 269.279,488.913 264.445,491.913 257,490.5C 253.742,491.88 250.575,493.38 247.5,495C 257.675,495.17 267.675,495.67 277.5,496.5C 262.496,496.667 247.496,496.5 232.5,496C 229.143,494.488 227.143,491.988 226.5,488.5C 227.531,489.355 228.697,490.022 230,490.5C 231.688,488.481 233.688,486.814 236,485.5C 236.113,483.026 237.113,481.026 239,479.5C 239.176,475.312 239.676,471.312 240.5,467.5 Z"/></g>
<g><path style="opacity:1" fill="#b9171d" d="M 271.5,481.5 C 276.179,481.334 280.845,481.501 285.5,482C 287.333,483.833 289.167,485.667 291,487.5C 291.667,498.167 291.667,508.833 291,519.5C 289.167,521.333 287.333,523.167 285.5,525C 267.833,525.667 250.167,525.667 232.5,525C 230.294,522.963 228.294,520.797 226.5,518.5C 226.5,513.833 226.5,509.167 226.5,504.5C 231.167,504.5 235.833,504.5 240.5,504.5C 240.5,506.5 240.5,508.5 240.5,510.5C 252.833,510.5 265.167,510.5 277.5,510.5C 277.5,505.833 277.5,501.167 277.5,496.5C 267.675,495.67 257.675,495.17 247.5,495C 250.575,493.38 253.742,491.88 257,490.5C 264.445,491.913 269.279,488.913 271.5,481.5 Z"/></g>
<g><path style="opacity:1" fill="#df9498" d="M 390.5,467.5 C 390.5,474.5 390.5,481.5 390.5,488.5C 402.5,488.5 414.5,488.5 426.5,488.5C 414.345,489.495 402.011,489.829 389.5,489.5C 389.175,481.981 389.508,474.648 390.5,467.5 Z"/></g>
<g><path style="opacity:1" fill="#db888c" d="M 478.5,467.5 C 485.982,466.508 493.648,466.175 501.5,466.5C 501.5,474.167 501.5,481.833 501.5,489.5C 488.989,489.829 476.655,489.495 464.5,488.5C 476.5,488.5 488.5,488.5 500.5,488.5C 500.5,481.5 500.5,474.5 500.5,467.5C 493.167,467.5 485.833,467.5 478.5,467.5 Z"/></g>
<g><path style="opacity:1" fill="#d67a7e" d="M 577.5,467.5 C 578.492,474.648 578.825,481.981 578.5,489.5C 565.833,489.5 553.167,489.5 540.5,489.5C 540.5,481.833 540.5,474.167 540.5,466.5C 553.011,466.171 565.345,466.505 577.5,467.5 Z"/></g>
<g><path style="opacity:1" fill="#fdfdfd" d="M 577.5,467.5 C 577.5,474.5 577.5,481.5 577.5,488.5C 565.5,488.5 553.5,488.5 541.5,488.5C 541.5,481.5 541.5,474.5 541.5,467.5C 553.5,467.5 565.5,467.5 577.5,467.5 Z"/></g>
<g><path style="opacity:1" fill="#cb5d62" d="M 451.5,472.5 C 450.527,490.12 450.194,507.786 450.5,525.5C 449.338,508.338 449.171,491.005 450,473.5C 450.383,472.944 450.883,472.611 451.5,472.5 Z"/></g>
<g><path style="opacity:1" fill="#ebc1c3" d="M 434.5,503.5 C 420.01,504.496 405.343,504.829 390.5,504.5C 390.825,511.687 390.491,518.687 389.5,525.5C 389.5,518.167 389.5,510.833 389.5,503.5C 404.5,503.5 419.5,503.5 434.5,503.5 Z"/></g>
<g><path style="opacity:1" fill="#eabbbd" d="M 464.5,504.5 C 476.655,503.505 488.989,503.171 501.5,503.5C 501.5,510.833 501.5,518.167 501.5,525.5C 500.509,518.687 500.175,511.687 500.5,504.5C 488.5,504.5 476.5,504.5 464.5,504.5 Z"/></g>
<g><path style="opacity:1" fill="#db898d" d="M 240.5,504.5 C 235.833,504.5 231.167,504.5 226.5,504.5C 226.5,509.167 226.5,513.833 226.5,518.5C 225.513,513.695 225.179,508.695 225.5,503.5C 230.695,503.179 235.695,503.513 240.5,504.5 Z"/></g>
<g><path style="opacity:1" fill="#b7141d" d="M 345.5,494.5 C 344.235,495.479 342.901,496.479 341.5,497.5C 340.502,506.81 340.168,516.143 340.5,525.5C 336.167,525.5 331.833,525.5 327.5,525.5C 327.334,517.493 327.5,509.493 328,501.5C 330.626,498.769 333.793,496.936 337.5,496C 335.06,491.61 336.06,490.777 340.5,493.5C 342.62,491.991 344.287,492.324 345.5,494.5 Z"/></g>
<g><path style="opacity:1" fill="#d1696e" d="M 93.5,496.5 C 93.5,501.167 93.5,505.833 93.5,510.5C 109.342,510.17 125.009,510.504 140.5,511.5C 124.5,511.5 108.5,511.5 92.5,511.5C 92.1795,506.305 92.5128,501.305 93.5,496.5 Z"/></g>
<g><path style="opacity:1" fill="#e7b9bc" d="M 563.5,504.5 C 556.167,504.5 548.833,504.5 541.5,504.5C 541.825,511.687 541.491,518.687 540.5,525.5C 540.5,518.167 540.5,510.833 540.5,503.5C 548.352,503.175 556.018,503.508 563.5,504.5 Z"/></g>
<g><path style="opacity:1" fill="#bc2528" d="M 278.5,562.5 C 277.539,564.265 277.205,566.265 277.5,568.5C 276.167,568.5 274.833,568.5 273.5,568.5C 273.5,560.5 273.5,552.5 273.5,544.5C 279.402,543.962 285.068,544.795 290.5,547C 294.662,558.122 290.662,563.289 278.5,562.5 Z"/></g>
<g><path style="opacity:1" fill="#bc2a2c" d="M 343.5,544.5 C 349.868,544.17 356.202,544.504 362.5,545.5C 360.257,546.474 357.924,546.808 355.5,546.5C 355.5,551.833 355.5,557.167 355.5,562.5C 353.833,562.5 352.167,562.5 350.5,562.5C 350.5,557.167 350.5,551.833 350.5,546.5C 347.612,547.01 345.279,546.344 343.5,544.5 Z"/></g>
<g><path style="opacity:1" fill="#ba1e24" d="M 441.5,544.5 C 446.599,544.175 451.599,544.675 456.5,546C 459.321,548.717 458.987,551.05 455.5,553C 461.015,556.612 460.682,559.612 454.5,562C 450.179,562.499 445.846,562.666 441.5,562.5C 441.5,556.5 441.5,550.5 441.5,544.5 Z"/></g>
<g><path style="opacity:1" fill="#be2c2d" d="M 316.5,543.5 C 320.422,543.069 323.922,544.069 327,546.5C 328.397,551.708 328.897,557.041 328.5,562.5C 323.489,562.666 318.489,562.499 313.5,562C 308.767,559.078 308.434,555.745 312.5,552C 316.152,551.501 319.818,551.335 323.5,551.5C 323.714,549.856 323.38,548.356 322.5,547C 318.998,546.718 315.665,546.551 312.5,546.5C 313.624,545.141 314.958,544.141 316.5,543.5 Z"/></g>
<g><path style="opacity:1" fill="#bf2f2f" d="M 533.5,549.5 C 533.5,551.167 533.5,552.833 533.5,554.5C 528.637,554.181 523.97,554.514 519.5,555.5C 519.751,557.17 520.418,558.67 521.5,560C 524.713,560.703 527.879,560.536 531,559.5C 532.811,560.424 532.645,561.257 530.5,562C 518.526,565.267 513.359,560.767 515,548.5C 521.562,541.733 527.729,542.067 533.5,549.5 Z"/></g>
<g><path style="opacity:1" fill="#e5adb0" d="M 613.5,544.5 C 614.49,550.645 614.823,556.978 614.5,563.5C 612.585,563.784 610.919,563.451 609.5,562.5C 610.833,562.5 612.167,562.5 613.5,562.5C 613.5,556.5 613.5,550.5 613.5,544.5 Z"/></g>
<g><path style="opacity:1" fill="#be2b2c" d="M 195.5,549.5 C 195.5,551.167 195.5,552.833 195.5,554.5C 190.456,554.173 185.456,554.506 180.5,555.5C 180.624,556.107 180.957,556.44 181.5,556.5C 182.028,557.721 182.695,558.887 183.5,560C 186.993,561.004 190.159,560.504 193,558.5C 193.692,559.025 194.192,559.692 194.5,560.5C 188.734,564.734 183.234,564.401 178,559.5C 174.06,549.124 177.56,543.958 188.5,544C 191.595,544.935 193.929,546.769 195.5,549.5 Z"/></g>
<g><path style="opacity:1" fill="#fcf7f7" d="M 182.5,546.5 C 187.836,545.185 190.503,547.185 190.5,552.5C 187.5,552.5 184.5,552.5 181.5,552.5C 181.517,550.435 181.85,548.435 182.5,546.5 Z"/></g>
<g><path style="opacity:1" fill="#be3232" d="M 237.5,544.5 C 243.868,544.17 250.202,544.504 256.5,545.5C 254.257,546.474 251.924,546.808 249.5,546.5C 249.5,551.833 249.5,557.167 249.5,562.5C 247.833,562.5 246.167,562.5 244.5,562.5C 244.5,557.167 244.5,551.833 244.5,546.5C 241.612,547.01 239.279,546.344 237.5,544.5 Z"/></g>
<g><path style="opacity:1" fill="#fcf6f7" d="M 521.5,546.5 C 526.542,545.505 528.875,547.505 528.5,552.5C 525.5,552.5 522.5,552.5 519.5,552.5C 519.253,550.142 519.919,548.142 521.5,546.5 Z"/></g>
<g><path style="opacity:1" fill="#b81f24" d="M 613.5,544.5 C 613.5,550.5 613.5,556.5 613.5,562.5C 612.167,562.5 610.833,562.5 609.5,562.5C 609.5,560.5 609.5,558.5 609.5,556.5C 605.297,555.702 602.63,557.369 601.5,561.5C 599.833,562.833 598.167,562.833 596.5,561.5C 597.248,559.668 598.248,558.001 599.5,556.5C 594.312,552.49 594.312,548.656 599.5,545C 604.155,544.501 608.821,544.334 613.5,544.5 Z"/></g>
<g><path style="opacity:1" fill="#fcf6f7" d="M 278.5,546.5 C 281.32,546.248 283.986,546.748 286.5,548C 289.904,556.353 287.237,560.519 278.5,560.5C 278.5,555.833 278.5,551.167 278.5,546.5 Z"/></g>
<g><path style="opacity:1" fill="#faefef" d="M 446.5,546.5 C 448.527,546.338 450.527,546.505 452.5,547C 453.801,548.616 453.801,550.116 452.5,551.5C 450.5,551.5 448.5,551.5 446.5,551.5C 446.5,549.833 446.5,548.167 446.5,546.5 Z"/></g>
<g><path style="opacity:1" fill="#f7e7e8" d="M 602.5,546.5 C 604.833,546.5 607.167,546.5 609.5,546.5C 609.5,549.167 609.5,551.833 609.5,554.5C 601.768,555.796 599.435,553.129 602.5,546.5 Z"/></g>
<g><path style="opacity:1" fill="#bd3231" d="M 153.5,562.5 C 153.5,558.833 153.5,555.167 153.5,551.5C 148.5,551.5 143.5,551.5 138.5,551.5C 138.5,555.167 138.5,558.833 138.5,562.5C 136.833,562.5 135.167,562.5 133.5,562.5C 133.5,554.5 133.5,546.5 133.5,538.5C 135.167,538.5 136.833,538.5 138.5,538.5C 138.5,542.167 138.5,545.833 138.5,549.5C 143.5,549.5 148.5,549.5 153.5,549.5C 153.5,545.833 153.5,542.167 153.5,538.5C 155.167,538.5 156.833,538.5 158.5,538.5C 158.5,546.5 158.5,554.5 158.5,562.5C 156.833,562.5 155.167,562.5 153.5,562.5 Z"/></g>
<g><path style="opacity:1" fill="#bc2729" d="M 379.5,544.5 C 381.167,544.5 382.833,544.5 384.5,544.5C 384.5,546.5 384.5,548.5 384.5,550.5C 389.118,549.924 393.285,550.924 397,553.5C 398.615,558.09 397.115,560.923 392.5,562C 388.179,562.499 383.846,562.666 379.5,562.5C 379.5,556.5 379.5,550.5 379.5,544.5 Z"/></g>
<g><path style="opacity:1" fill="#d98185" d="M 446.5,546.5 C 446.5,548.167 446.5,549.833 446.5,551.5C 448.5,551.5 450.5,551.5 452.5,551.5C 450.393,552.468 448.059,552.802 445.5,552.5C 445.205,550.265 445.539,548.265 446.5,546.5 Z"/></g>
<g><path style="opacity:1" fill="#faeeef" d="M 316.5,553.5 C 318.833,553.5 321.167,553.5 323.5,553.5C 323.5,555.833 323.5,558.167 323.5,560.5C 321.143,560.663 318.81,560.497 316.5,560C 313.886,557.757 313.886,555.59 316.5,553.5 Z"/></g>
<g><path style="opacity:1" fill="#fbf2f2" d="M 384.5,552.5 C 391.659,550.82 393.993,553.32 391.5,560C 389.19,560.497 386.857,560.663 384.5,560.5C 384.5,557.833 384.5,555.167 384.5,552.5 Z"/></g>
<g><path style="opacity:1" fill="#dd8d91" d="M 195.5,549.5 C 196.461,551.265 196.795,553.265 196.5,555.5C 191.305,555.179 186.305,555.513 181.5,556.5C 180.957,556.44 180.624,556.107 180.5,555.5C 185.456,554.506 190.456,554.173 195.5,554.5C 195.5,552.833 195.5,551.167 195.5,549.5 Z"/></g>
<g><path style="opacity:1" fill="#f8ebec" d="M 445.5,554.5 C 448.187,554.336 450.854,554.503 453.5,555C 454.833,556.667 454.833,558.333 453.5,560C 450.854,560.497 448.187,560.664 445.5,560.5C 445.5,558.5 445.5,556.5 445.5,554.5 Z"/></g>
<g><path style="opacity:1" fill="#dc8b8f" d="M 533.5,549.5 C 534.461,551.265 534.795,553.265 534.5,555.5C 529.5,555.5 524.5,555.5 519.5,555.5C 523.97,554.514 528.637,554.181 533.5,554.5C 533.5,552.833 533.5,551.167 533.5,549.5 Z"/></g>
<g><path style="opacity:1" fill="#de999d" d="M 153.5,562.5 C 152.521,559.375 152.187,556.042 152.5,552.5C 148.167,552.5 143.833,552.5 139.5,552.5C 139.813,556.042 139.479,559.375 138.5,562.5C 138.5,558.833 138.5,555.167 138.5,551.5C 143.5,551.5 148.5,551.5 153.5,551.5C 153.5,555.167 153.5,558.833 153.5,562.5 Z"/></g>
<g><path style="opacity:1" fill="#be2e30" d="M 573.5,562.5 C 573.826,558.116 573.492,553.783 572.5,549.5C 571.893,549.624 571.56,549.957 571.5,550.5C 570.174,554.143 568.84,557.81 567.5,561.5C 565.5,562.833 563.5,562.833 561.5,561.5C 557.152,545.195 555.486,545.528 556.5,562.5C 554.833,562.5 553.167,562.5 551.5,562.5C 551.5,556.5 551.5,550.5 551.5,544.5C 554.167,544.5 556.833,544.5 559.5,544.5C 560.647,549.441 562.48,554.108 565,558.5C 566.944,554.277 568.611,549.944 570,545.5C 572.381,544.565 574.881,544.232 577.5,544.5C 577.5,550.5 577.5,556.5 577.5,562.5C 576.167,562.5 574.833,562.5 573.5,562.5 Z"/></g>
<g><path style="opacity:1" fill="#d68589" d="M 571.5,550.5 C 571.56,549.957 571.893,549.624 572.5,549.5C 573.492,553.783 573.826,558.116 573.5,562.5C 572.833,558.5 572.167,554.5 571.5,550.5 Z"/></g>
<g><path style="opacity:1" fill="#ba2226" d="M 482.5,562.5 C 481.539,564.265 481.205,566.265 481.5,568.5C 480.167,568.5 478.833,568.5 477.5,568.5C 477.5,560.5 477.5,552.5 477.5,544.5C 483.402,543.962 489.068,544.795 494.5,547C 498.662,558.122 494.662,563.289 482.5,562.5 Z"/></g>
<g><path style="opacity:1" fill="#f5eeef" d="M 482.5,546.5 C 488.54,545.321 491.54,547.654 491.5,553.5C 491.54,559.346 488.54,561.679 482.5,560.5C 482.5,555.833 482.5,551.167 482.5,546.5 Z"/></g>
<g><path style="opacity:1" fill="#dc8a8d" d="M 278.5,562.5 C 278.5,564.833 278.5,567.167 278.5,569.5C 276.585,569.784 274.919,569.451 273.5,568.5C 274.833,568.5 276.167,568.5 277.5,568.5C 277.205,566.265 277.539,564.265 278.5,562.5 Z"/></g>
<g><path style="opacity:1" fill="#dc898d" d="M 482.5,562.5 C 482.5,564.833 482.5,567.167 482.5,569.5C 480.585,569.784 478.919,569.451 477.5,568.5C 478.833,568.5 480.167,568.5 481.5,568.5C 481.205,566.265 481.539,564.265 482.5,562.5 Z"/></g>
</svg>
